<svg xmlns="http://www.w3.org/2000/svg" width="68.638" height="90" viewBox="0 0 68.638 90">
  <g id="Group_104" data-name="Group 104" transform="translate(-1808 472)">
    <g id="Group_103" data-name="Group 103" transform="translate(1808 -472)">
      <path id="Path_285" data-name="Path 285" d="M246.214,518.174a7.943,7.943,0,0,0-5.627-2.34H232.51v-3.261a2.3,2.3,0,0,0-.455-1.36l.024-.025-.21-.209-.029-.032-.254-.276-.037.037a2.3,2.3,0,0,0-1.358-.451h-7.237a5.389,5.389,0,0,0-2.673-2.919,13.724,13.724,0,0,0-12.1,0,5.389,5.389,0,0,0-2.673,2.919h-7.237a2.3,2.3,0,0,0-1.36.455l-.025-.025-.207.207-.035.032-.276.253.037.036a2.3,2.3,0,0,0-.451,1.359v3.261h-8.076a7.987,7.987,0,0,0-7.965,7.966v64.166a7.985,7.985,0,0,0,7.966,7.966h52.706a7.985,7.985,0,0,0,7.966-7.966V523.8a7.942,7.942,0,0,0-2.339-5.627m-58.335-.159h8.076v.354l0,3.21a2.324,2.324,0,0,0,1.852,2.269,2.269,2.269,0,0,0,.467.047h31.922a2.32,2.32,0,0,0,2.317-2.315v-3.565h8.075a5.8,5.8,0,0,1,5.784,5.784v64.167a5.806,5.806,0,0,1-5.784,5.784H187.879a5.8,5.8,0,0,1-5.784-5.784V523.8a5.8,5.8,0,0,1,5.784-5.784m18.9-5.578v-.065a1.09,1.09,0,0,0,.732-1.026,1.727,1.727,0,0,1,.433-1.082,4.352,4.352,0,0,1,1.29-1.025,11.654,11.654,0,0,1,10,0,4.348,4.348,0,0,1,1.29,1.025,1.735,1.735,0,0,1,.433,1.081,1.091,1.091,0,0,0,1.091,1.091h8.148l.092.038.01.01.034.088v9.007l-.04.093-.074.031-.022.009H198.271l-.095-.04-.041-.094v-9.007l.038-.092.011-.011.088-.033Zm-10.085-1.557h0Z" transform="translate(-179.914 -505.932)" fill="#73197e"/>
      <path id="Path_286" data-name="Path 286" d="M198.564,561.147h13.689a1.087,1.087,0,0,0,1.086-1.086V546.372a1.087,1.087,0,0,0-1.086-1.086H198.564a1.087,1.087,0,0,0-1.086,1.086v13.689a1.087,1.087,0,0,0,1.086,1.086m1.086-2.172V547.457h11.518v11.518Z" transform="translate(-184.859 -517.023)" fill="#73197e"/>
      <path id="Path_287" data-name="Path 287" d="M229.864,563.167h0l0,0h0a16.962,16.962,0,0,0,9.564,2.864,19.553,19.553,0,0,0,9.869-2.8,1.084,1.084,0,1,0-1.087-1.876,17.443,17.443,0,0,1-8.805,2.514,15.387,15.387,0,0,1-6.018-1.227,13.609,13.609,0,0,1-1.664-.844c-.191-.115-.336-.209-.433-.275l-.109-.077-.026-.019-.007,0-.013-.01-.462-.319-.024.139-.146-.024a1.084,1.084,0,0,0-.642,1.958" transform="translate(-193.834 -521.506)" fill="#73197e"/>
      <path id="Path_288" data-name="Path 288" d="M233.452,553.791a2.87,2.87,0,1,0-2.029-.841,2.863,2.863,0,0,0,2.029.841" transform="translate(-194.214 -517.822)" fill="#73197e"/>
      <path id="Path_289" data-name="Path 289" d="M251.68,553.791a2.87,2.87,0,1,0-2.029-.841,2.863,2.863,0,0,0,2.029.841" transform="translate(-199.358 -517.822)" fill="#73197e"/>
      <path id="Path_290" data-name="Path 290" d="M198.564,601.22h13.689a1.088,1.088,0,0,0,1.086-1.086V586.444a1.086,1.086,0,0,0-1.086-1.085H198.564a1.086,1.086,0,0,0-1.086,1.085v13.689a1.087,1.087,0,0,0,1.086,1.086m1.086-2.172V587.531h11.518v11.518Z" transform="translate(-184.859 -528.318)" fill="#73197e"/>
      <path id="Path_291" data-name="Path 291" d="M249.3,604.13a19.549,19.549,0,0,0-9.867-2.8,17.65,17.65,0,0,0-6.932,1.423,15.826,15.826,0,0,0-1.934.983c-.224.135-.4.248-.515.33l-.136.1-.037.027-.011.008h0l-.01.009h0a1.079,1.079,0,0,0-.224,1.5h0a1.086,1.086,0,0,0,1.513.235l.006,0s.046-.035.144-.1a14.915,14.915,0,0,1,8.117-2.348,17.45,17.45,0,0,1,8.807,2.514,1.082,1.082,0,1,0,1.079-1.876" transform="translate(-193.834 -532.866)" fill="#73197e"/>
      <path id="Path_292" data-name="Path 292" d="M233.452,593.867a2.871,2.871,0,1,0-2.029-.841,2.869,2.869,0,0,0,2.029.841" transform="translate(-194.214 -529.136)" fill="#73197e"/>
      <path id="Path_293" data-name="Path 293" d="M253.709,593.027a2.871,2.871,0,1,0-2.029.84,2.869,2.869,0,0,0,2.029-.84" transform="translate(-199.358 -529.136)" fill="#73197e"/>
    </g>
  </g>
</svg>
