<svg xmlns="http://www.w3.org/2000/svg" width="140" height="140" viewBox="0 0 140 140">
  <g id="smiley5" transform="translate(-32.7 -84.8)">
    <path id="Path_348" data-name="Path 348" d="M32.7,158.9V150.7a10.906,10.906,0,0,0,.231-1.192,66.026,66.026,0,0,1,8-27.569c10.885-19.725,27.423-31.8,49.577-36.029,2.654-.5,5.385-.731,8.077-1.115h8.192a10.058,10.058,0,0,0,1.038.231,65.63,65.63,0,0,1,24.423,6.344c21.538,10.574,34.731,27.646,39.346,51.217.538,2.653.731,5.383,1.115,8.075v8.19a10.909,10.909,0,0,0-.231,1.192,66.026,66.026,0,0,1-8,27.569c-10.885,19.725-27.423,31.8-49.577,36.067-2.654.5-5.385.731-8.077,1.115H98.623a10.055,10.055,0,0,0-1.038-.231,64.671,64.671,0,0,1-24.538-6.421C51.585,207.574,38.431,190.5,33.854,166.97,33.277,164.317,33.046,161.587,32.7,158.9ZM79.277,129.9a10.747,10.747,0,1,0,10.808,10.728A10.824,10.824,0,0,0,79.277,129.9Zm57.577,10.689a10.769,10.769,0,1,0-10.731,10.8A10.849,10.849,0,0,0,136.854,140.592ZM61.008,195.27c2.846,1.038,5.615,2.038,8.423,3.038,6.308-13.881,16.923-22.032,32.538-22.071s26.308,8.075,32.731,22.071c2.769-1,5.577-2.038,8.423-3.038-5.192-14.881-20.962-28.108-40.885-28.185C82.662,167.008,66.508,179.774,61.008,195.27Z" fill="#fc2632" fill-rule="evenodd"/>
  </g>
</svg>
