<svg xmlns="http://www.w3.org/2000/svg" width="140" height="140" viewBox="0 0 140 140">
  <g id="smiley1" transform="translate(-288.8 -74.8)">
    <path id="Path_339" data-name="Path 339" d="M288.8,144.722A70,70,0,1,1,358.761,214.8,70.039,70.039,0,0,1,288.8,144.722Zm96.755,26.717c.008,0,4.244-2.909,4.244-4.8s-4.236-3.969-4.244-3.964c-.078-.084-51.756,0-51.737,0,0-.045-4.018,2.225-4.018,4.416s4.018,4.32,4.018,4.35C333.8,171.368,385.555,171.6,385.555,171.439Zm-42.817-42.933a10.773,10.773,0,0,0-21.544-.194,10.773,10.773,0,1,0,21.544.194Zm42.855-10.85a10.772,10.772,0,0,0-.039,21.544,10.88,10.88,0,0,0,10.811-10.772A10.771,10.771,0,0,0,385.594,117.655Z" transform="translate(0 0)" fill="#fec500" fill-rule="evenodd"/>
  </g>
</svg>
