<svg xmlns="http://www.w3.org/2000/svg" width="140" height="140" viewBox="0 0 140 140">
  <g id="smiley1" transform="translate(-288.8 -74.8)">
    <path id="Path_339" data-name="Path 339" d="M288.8,144.722A70,70,0,1,1,358.761,214.8,70.039,70.039,0,0,1,288.8,144.722ZM357.633,186.8a43.743,43.743,0,0,0,17.111-3.189,41.8,41.8,0,0,0,16.45-12.172,4.721,4.721,0,0,0,.583-5.444,4.6,4.6,0,0,0-4.822-2.256c-1.556.233-2.528,1.322-3.5,2.411-8.167,8.983-18.317,12.678-30.294,10.733a31.362,31.362,0,0,1-19.211-10.928c-2.178-2.528-4.939-2.994-7.117-1.206-1.711,1.4-2.411,4.55,0,7.233C335.35,181.666,346.005,186.527,357.633,186.8Zm-14.894-58.294a10.773,10.773,0,0,0-21.544-.194,10.773,10.773,0,1,0,21.544.194Zm42.855-10.85a10.772,10.772,0,0,0-.039,21.544,10.88,10.88,0,0,0,10.811-10.772A10.771,10.771,0,0,0,385.594,117.655Z" transform="translate(0 0)" fill="#d2e927" fill-rule="evenodd"/>
  </g>
</svg>
