<svg xmlns="http://www.w3.org/2000/svg" width="140" height="140" viewBox="0 0 140 140">
  <g id="smiley4" transform="translate(-261 -63)">
    <path id="Path_347" data-name="Path 347" d="M261,132.922A70,70,0,1,1,330.961,203,70.039,70.039,0,0,1,261,132.922Zm53.939-16.217a10.773,10.773,0,0,0-21.544-.194,10.773,10.773,0,1,0,21.544.194Zm42.855-10.85a10.772,10.772,0,0,0-.039,21.544,10.772,10.772,0,1,0,.039-21.544Zm-28.35,40.794a44.116,44.116,0,0,0-30.839,13.067c-2.411,2.411-1.711,5.172,0,6.417,2.178,1.594,4.939,1.167,7.117-1.05a32.8,32.8,0,0,1,19.211-9.683c12.017-1.711,22.128,1.556,30.294,9.489a6.1,6.1,0,0,0,3.5,2.139,4.894,4.894,0,0,0,4.822-1.983,3.762,3.762,0,0,0-.583-4.783,41.821,41.821,0,0,0-16.45-10.772A47.429,47.429,0,0,0,329.444,146.65Z" transform="translate(0 0)" fill="#fc7c34" fill-rule="evenodd"/>
  </g>
</svg>
